<svg width="14" height="14" viewBox="0 0 14 14" fill="none" xmlns="http://www.w3.org/2000/svg">
<g clip-path="url(#clip0_1_1160)">
<path d="M10.465 10.465C9.46782 11.2251 8.25363 11.6462 6.99998 11.6667C2.91665 11.6667 0.583313 7 0.583313 7C1.30892 5.64777 2.31531 4.46636 3.53498 3.535M5.77498 2.47334C6.17651 2.37935 6.5876 2.33237 6.99998 2.33334C11.0833 2.33334 13.4166 7 13.4166 7C13.0626 7.66244 12.6403 8.2861 12.1566 8.86083M8.23665 8.23667C8.07643 8.4086 7.88323 8.54651 7.66857 8.64216C7.4539 8.7378 7.22217 8.78924 6.9872 8.79338C6.75223 8.79753 6.51882 8.7543 6.30092 8.66629C6.08301 8.57827 5.88507 8.44727 5.71889 8.28109C5.55271 8.11491 5.42171 7.91697 5.33369 7.69906C5.24568 7.48116 5.20245 7.24776 5.2066 7.01278C5.21074 6.77781 5.26218 6.54608 5.35782 6.33141C5.45347 6.11675 5.59138 5.92355 5.76331 5.76334" stroke="#555555" stroke-width="1.4" stroke-linecap="round" stroke-linejoin="round"/>
<path d="M0.583313 0.583332L13.4166 13.4167" stroke="#555555" stroke-width="1.4" stroke-linecap="round" stroke-linejoin="round"/>
</g>
<defs>
<clipPath id="clip0_1_1160">
<rect width="14" height="14" fill="white"/>
</clipPath>
</defs>
</svg>
