<svg width="15" height="17" viewBox="0 0 15 17" fill="none" xmlns="http://www.w3.org/2000/svg">
<path d="M12.5556 7.5H2.44444C1.6467 7.5 1 8.1467 1 8.94444V14C1 14.7977 1.6467 15.4444 2.44444 15.4444H12.5556C13.3533 15.4444 14 14.7977 14 14V8.94444C14 8.1467 13.3533 7.5 12.5556 7.5Z" stroke="#555555" stroke-width="1.5" stroke-linecap="round" stroke-linejoin="round"/>
<path d="M3.88892 7.5V4.61111C3.88892 3.65338 4.26937 2.73488 4.94659 2.05767C5.6238 1.38046 6.5423 1 7.50003 1C8.45775 1 9.37625 1.38046 10.0535 2.05767C10.7307 2.73488 11.1111 3.65338 11.1111 4.61111V7.5" stroke="#555555" stroke-width="1.5" stroke-linecap="round" stroke-linejoin="round"/>
</svg>
